<?xml version="1.0" encoding="utf-8" standalone="no"?>
<!DOCTYPE svg PUBLIC "-//W3C//DTD SVG 1.1//EN"
  "http://www.w3.org/Graphics/SVG/1.1/DTD/svg11.dtd">
<svg xmlns:xlink="http://www.w3.org/1999/xlink" width="449.435952pt" height="280.512pt" viewBox="0 0 449.435952 280.512" xmlns="http://www.w3.org/2000/svg" version="1.1">
 <metadata>
  <rdf:RDF xmlns:dc="http://purl.org/dc/elements/1.1/" xmlns:cc="http://creativecommons.org/ns#" xmlns:rdf="http://www.w3.org/1999/02/22-rdf-syntax-ns#">
   <cc:Work>
    <dc:type rdf:resource="http://purl.org/dc/dcmitype/StillImage"/>
    <dc:date>2023-05-18T06:35:15.975702</dc:date>
    <dc:format>image/svg+xml</dc:format>
    <dc:creator>
     <cc:Agent>
      <dc:title>Matplotlib v3.7.1, https://matplotlib.org/</dc:title>
     </cc:Agent>
    </dc:creator>
   </cc:Work>
  </rdf:RDF>
 </metadata>
 <defs>
  <style type="text/css">*{stroke-linejoin: round; stroke-linecap: butt}</style>
 </defs>
 <g id="figure_1">
  <g id="patch_1">
   <path d="M 0 280.512 
L 449.435952 280.512 
L 449.435952 0 
L 0 0 
z
" style="fill: #ffffff"/>
  </g>
  <g id="axes_1">
   <g id="patch_2">
    <path d="M 278.154827 140.256 
C 278.154827 136.851595 277.991503 133.449149 277.665419 130.060397 
C 277.339335 126.671644 276.850866 123.300486 276.201696 119.958548 
L 171.710027 140.256 
z
" style="fill: #1f77b4"/>
   </g>
   <g id="patch_3">
    <path d="M 276.201696 119.958548 
C 275.551981 116.613804 274.742045 113.302184 273.774685 110.035129 
C 272.807325 106.768073 271.683657 103.549348 270.407562 100.390073 
L 171.710027 140.256 
z
" style="fill: #ff7f0e"/>
   </g>
   <g id="patch_4">
    <path d="M 270.407562 100.390073 
C 268.681001 96.115564 266.678575 91.95773 264.412935 87.942844 
C 262.147296 83.927958 259.623225 80.064493 256.856672 76.376862 
L 171.710027 140.256 
z
" style="fill: #2ca02c"/>
   </g>
   <g id="patch_5">
    <path d="M 256.856672 76.376862 
C 253.596019 72.030628 250.007373 67.940423 246.122208 64.14212 
C 242.237044 60.343817 238.066755 56.848556 233.647918 53.686992 
L 171.710027 140.256 
z
" style="fill: #d62728"/>
   </g>
   <g id="patch_6">
    <path d="M 233.647918 53.686992 
C 229.054489 50.400512 224.206761 47.484836 219.150673 44.967593 
C 214.094585 42.45035 208.846156 40.339515 203.455121 38.655092 
L 171.710027 140.256 
z
" style="fill: #9467bd"/>
   </g>
   <g id="patch_7">
    <path d="M 203.455121 38.655092 
C 197.687452 36.85299 191.776791 35.545284 185.78722 34.746152 
C 179.797649 33.947019 173.750893 33.659359 167.712509 33.88629 
L 171.710027 140.256 
z
" style="fill: #8c564b"/>
   </g>
   <g id="patch_8">
    <path d="M 167.712509 33.88629 
C 160.582934 34.154229 153.498325 35.138295 146.565628 36.823632 
C 139.632932 38.50897 132.887209 40.887057 126.43029 43.921993 
L 171.710027 140.256 
z
" style="fill: #e377c2"/>
   </g>
   <g id="patch_9">
    <path d="M 126.43029 43.921993 
C 118.416567 47.688672 110.904074 52.44063 104.067082 58.067635 
C 97.23009 63.694639 91.121876 70.152841 85.884134 77.292428 
L 171.710027 140.256 
z
" style="fill: #7f7f7f"/>
   </g>
   <g id="patch_10">
    <path d="M 85.884134 77.292428 
C 72.584713 95.42092 65.36494 117.305299 65.266252 139.788783 
C 65.167565 162.272267 72.194948 184.219182 85.334715 202.463724 
L 171.710027 140.256 
z
" style="fill: #bcbd22"/>
   </g>
   <g id="patch_11">
    <path d="M 85.334715 202.463724 
C 98.491755 220.73225 117.11136 234.364064 138.500918 241.387847 
C 159.890476 248.41163 182.966707 248.471661 204.392519 241.559258 
C 225.818331 234.646856 244.508607 221.1121 257.760516 202.912275 
C 271.012425 184.71245 278.15482 162.76929 278.154827 140.256034 
L 171.710027 140.256 
z
" style="fill: #17becf"/>
   </g>
   <g id="matplotlib.axis_1"/>
   <g id="matplotlib.axis_2"/>
   <g id="text_1">
    <!-- BNBUSDT -->
    <g transform="translate(288.260958 131.800212) scale(0.1 -0.1)">
     <defs>
      <path id="DejaVuSans-42" d="M 1259 2228 
L 1259 519 
L 2272 519 
Q 2781 519 3026 730 
Q 3272 941 3272 1375 
Q 3272 1813 3026 2020 
Q 2781 2228 2272 2228 
L 1259 2228 
z
M 1259 4147 
L 1259 2741 
L 2194 2741 
Q 2656 2741 2882 2914 
Q 3109 3088 3109 3444 
Q 3109 3797 2882 3972 
Q 2656 4147 2194 4147 
L 1259 4147 
z
M 628 4666 
L 2241 4666 
Q 2963 4666 3353 4366 
Q 3744 4066 3744 3513 
Q 3744 3084 3544 2831 
Q 3344 2578 2956 2516 
Q 3422 2416 3680 2098 
Q 3938 1781 3938 1306 
Q 3938 681 3513 340 
Q 3088 0 2303 0 
L 628 0 
L 628 4666 
z
" transform="scale(0.015625)"/>
      <path id="DejaVuSans-4e" d="M 628 4666 
L 1478 4666 
L 3547 763 
L 3547 4666 
L 4159 4666 
L 4159 0 
L 3309 0 
L 1241 3903 
L 1241 0 
L 628 0 
L 628 4666 
z
" transform="scale(0.015625)"/>
      <path id="DejaVuSans-55" d="M 556 4666 
L 1191 4666 
L 1191 1831 
Q 1191 1081 1462 751 
Q 1734 422 2344 422 
Q 2950 422 3222 751 
Q 3494 1081 3494 1831 
L 3494 4666 
L 4128 4666 
L 4128 1753 
Q 4128 841 3676 375 
Q 3225 -91 2344 -91 
Q 1459 -91 1007 375 
Q 556 841 556 1753 
L 556 4666 
z
" transform="scale(0.015625)"/>
      <path id="DejaVuSans-53" d="M 3425 4513 
L 3425 3897 
Q 3066 4069 2747 4153 
Q 2428 4238 2131 4238 
Q 1616 4238 1336 4038 
Q 1056 3838 1056 3469 
Q 1056 3159 1242 3001 
Q 1428 2844 1947 2747 
L 2328 2669 
Q 3034 2534 3370 2195 
Q 3706 1856 3706 1288 
Q 3706 609 3251 259 
Q 2797 -91 1919 -91 
Q 1588 -91 1214 -16 
Q 841 59 441 206 
L 441 856 
Q 825 641 1194 531 
Q 1563 422 1919 422 
Q 2459 422 2753 634 
Q 3047 847 3047 1241 
Q 3047 1584 2836 1778 
Q 2625 1972 2144 2069 
L 1759 2144 
Q 1053 2284 737 2584 
Q 422 2884 422 3419 
Q 422 4038 858 4394 
Q 1294 4750 2059 4750 
Q 2388 4750 2728 4690 
Q 3069 4631 3425 4513 
z
" transform="scale(0.015625)"/>
      <path id="DejaVuSans-44" d="M 1259 4147 
L 1259 519 
L 2022 519 
Q 2988 519 3436 956 
Q 3884 1394 3884 2338 
Q 3884 3275 3436 3711 
Q 2988 4147 2022 4147 
L 1259 4147 
z
M 628 4666 
L 1925 4666 
Q 3281 4666 3915 4102 
Q 4550 3538 4550 2338 
Q 4550 1131 3912 565 
Q 3275 0 1925 0 
L 628 0 
L 628 4666 
z
" transform="scale(0.015625)"/>
      <path id="DejaVuSans-54" d="M -19 4666 
L 3928 4666 
L 3928 4134 
L 2272 4134 
L 2272 0 
L 1638 0 
L 1638 4134 
L -19 4134 
L -19 4666 
z
" transform="scale(0.015625)"/>
     </defs>
     <use xlink:href="#DejaVuSans-42"/>
     <use xlink:href="#DejaVuSans-4e" x="68.603516"/>
     <use xlink:href="#DejaVuSans-42" x="143.408203"/>
     <use xlink:href="#DejaVuSans-55" x="212.011719"/>
     <use xlink:href="#DejaVuSans-53" x="285.205078"/>
     <use xlink:href="#DejaVuSans-44" x="348.681641"/>
     <use xlink:href="#DejaVuSans-54" x="425.683594"/>
    </g>
   </g>
   <g id="text_2">
    <!-- 3.05355% -->
    <g transform="translate(209.855919 136.898013) scale(0.1 -0.1)">
     <defs>
      <path id="DejaVuSans-33" d="M 2597 2516 
Q 3050 2419 3304 2112 
Q 3559 1806 3559 1356 
Q 3559 666 3084 287 
Q 2609 -91 1734 -91 
Q 1441 -91 1130 -33 
Q 819 25 488 141 
L 488 750 
Q 750 597 1062 519 
Q 1375 441 1716 441 
Q 2309 441 2620 675 
Q 2931 909 2931 1356 
Q 2931 1769 2642 2001 
Q 2353 2234 1838 2234 
L 1294 2234 
L 1294 2753 
L 1863 2753 
Q 2328 2753 2575 2939 
Q 2822 3125 2822 3475 
Q 2822 3834 2567 4026 
Q 2313 4219 1838 4219 
Q 1578 4219 1281 4162 
Q 984 4106 628 3988 
L 628 4550 
Q 988 4650 1302 4700 
Q 1616 4750 1894 4750 
Q 2613 4750 3031 4423 
Q 3450 4097 3450 3541 
Q 3450 3153 3228 2886 
Q 3006 2619 2597 2516 
z
" transform="scale(0.015625)"/>
      <path id="DejaVuSans-2e" d="M 684 794 
L 1344 794 
L 1344 0 
L 684 0 
L 684 794 
z
" transform="scale(0.015625)"/>
      <path id="DejaVuSans-30" d="M 2034 4250 
Q 1547 4250 1301 3770 
Q 1056 3291 1056 2328 
Q 1056 1369 1301 889 
Q 1547 409 2034 409 
Q 2525 409 2770 889 
Q 3016 1369 3016 2328 
Q 3016 3291 2770 3770 
Q 2525 4250 2034 4250 
z
M 2034 4750 
Q 2819 4750 3233 4129 
Q 3647 3509 3647 2328 
Q 3647 1150 3233 529 
Q 2819 -91 2034 -91 
Q 1250 -91 836 529 
Q 422 1150 422 2328 
Q 422 3509 836 4129 
Q 1250 4750 2034 4750 
z
" transform="scale(0.015625)"/>
      <path id="DejaVuSans-35" d="M 691 4666 
L 3169 4666 
L 3169 4134 
L 1269 4134 
L 1269 2991 
Q 1406 3038 1543 3061 
Q 1681 3084 1819 3084 
Q 2600 3084 3056 2656 
Q 3513 2228 3513 1497 
Q 3513 744 3044 326 
Q 2575 -91 1722 -91 
Q 1428 -91 1123 -41 
Q 819 9 494 109 
L 494 744 
Q 775 591 1075 516 
Q 1375 441 1709 441 
Q 2250 441 2565 725 
Q 2881 1009 2881 1497 
Q 2881 1984 2565 2268 
Q 2250 2553 1709 2553 
Q 1456 2553 1204 2497 
Q 953 2441 691 2322 
L 691 4666 
z
" transform="scale(0.015625)"/>
      <path id="DejaVuSans-25" d="M 4653 2053 
Q 4381 2053 4226 1822 
Q 4072 1591 4072 1178 
Q 4072 772 4226 539 
Q 4381 306 4653 306 
Q 4919 306 5073 539 
Q 5228 772 5228 1178 
Q 5228 1588 5073 1820 
Q 4919 2053 4653 2053 
z
M 4653 2450 
Q 5147 2450 5437 2106 
Q 5728 1763 5728 1178 
Q 5728 594 5436 251 
Q 5144 -91 4653 -91 
Q 4153 -91 3862 251 
Q 3572 594 3572 1178 
Q 3572 1766 3864 2108 
Q 4156 2450 4653 2450 
z
M 1428 4353 
Q 1159 4353 1004 4120 
Q 850 3888 850 3481 
Q 850 3069 1003 2837 
Q 1156 2606 1428 2606 
Q 1700 2606 1854 2837 
Q 2009 3069 2009 3481 
Q 2009 3884 1853 4118 
Q 1697 4353 1428 4353 
z
M 4250 4750 
L 4750 4750 
L 1831 -91 
L 1331 -91 
L 4250 4750 
z
M 1428 4750 
Q 1922 4750 2215 4408 
Q 2509 4066 2509 3481 
Q 2509 2891 2217 2550 
Q 1925 2209 1428 2209 
Q 931 2209 642 2551 
Q 353 2894 353 3481 
Q 353 4063 643 4406 
Q 934 4750 1428 4750 
z
" transform="scale(0.015625)"/>
     </defs>
     <use xlink:href="#DejaVuSans-33"/>
     <use xlink:href="#DejaVuSans-2e" x="63.623047"/>
     <use xlink:href="#DejaVuSans-30" x="95.410156"/>
     <use xlink:href="#DejaVuSans-35" x="159.033203"/>
     <use xlink:href="#DejaVuSans-33" x="222.65625"/>
     <use xlink:href="#DejaVuSans-35" x="286.279297"/>
     <use xlink:href="#DejaVuSans-35" x="349.902344"/>
     <use xlink:href="#DejaVuSans-25" x="413.525391"/>
    </g>
   </g>
   <g id="text_3">
    <!-- TRXUSDT -->
    <g transform="translate(283.981151 109.772417) scale(0.1 -0.1)">
     <defs>
      <path id="DejaVuSans-52" d="M 2841 2188 
Q 3044 2119 3236 1894 
Q 3428 1669 3622 1275 
L 4263 0 
L 3584 0 
L 2988 1197 
Q 2756 1666 2539 1819 
Q 2322 1972 1947 1972 
L 1259 1972 
L 1259 0 
L 628 0 
L 628 4666 
L 2053 4666 
Q 2853 4666 3247 4331 
Q 3641 3997 3641 3322 
Q 3641 2881 3436 2590 
Q 3231 2300 2841 2188 
z
M 1259 4147 
L 1259 2491 
L 2053 2491 
Q 2509 2491 2742 2702 
Q 2975 2913 2975 3322 
Q 2975 3731 2742 3939 
Q 2509 4147 2053 4147 
L 1259 4147 
z
" transform="scale(0.015625)"/>
      <path id="DejaVuSans-58" d="M 403 4666 
L 1081 4666 
L 2241 2931 
L 3406 4666 
L 4084 4666 
L 2584 2425 
L 4184 0 
L 3506 0 
L 2194 1984 
L 872 0 
L 191 0 
L 1856 2491 
L 403 4666 
z
" transform="scale(0.015625)"/>
     </defs>
     <use xlink:href="#DejaVuSans-54"/>
     <use xlink:href="#DejaVuSans-52" x="61.083984"/>
     <use xlink:href="#DejaVuSans-58" x="130.566406"/>
     <use xlink:href="#DejaVuSans-55" x="199.072266"/>
     <use xlink:href="#DejaVuSans-53" x="272.265625"/>
     <use xlink:href="#DejaVuSans-44" x="335.742188"/>
     <use xlink:href="#DejaVuSans-54" x="412.744141"/>
    </g>
   </g>
   <g id="text_4">
    <!-- 3.05611% -->
    <g transform="translate(207.521478 124.882852) scale(0.1 -0.1)">
     <defs>
      <path id="DejaVuSans-36" d="M 2113 2584 
Q 1688 2584 1439 2293 
Q 1191 2003 1191 1497 
Q 1191 994 1439 701 
Q 1688 409 2113 409 
Q 2538 409 2786 701 
Q 3034 994 3034 1497 
Q 3034 2003 2786 2293 
Q 2538 2584 2113 2584 
z
M 3366 4563 
L 3366 3988 
Q 3128 4100 2886 4159 
Q 2644 4219 2406 4219 
Q 1781 4219 1451 3797 
Q 1122 3375 1075 2522 
Q 1259 2794 1537 2939 
Q 1816 3084 2150 3084 
Q 2853 3084 3261 2657 
Q 3669 2231 3669 1497 
Q 3669 778 3244 343 
Q 2819 -91 2113 -91 
Q 1303 -91 875 529 
Q 447 1150 447 2328 
Q 447 3434 972 4092 
Q 1497 4750 2381 4750 
Q 2619 4750 2861 4703 
Q 3103 4656 3366 4563 
z
" transform="scale(0.015625)"/>
      <path id="DejaVuSans-31" d="M 794 531 
L 1825 531 
L 1825 4091 
L 703 3866 
L 703 4441 
L 1819 4666 
L 2450 4666 
L 2450 531 
L 3481 531 
L 3481 0 
L 794 0 
L 794 531 
z
" transform="scale(0.015625)"/>
     </defs>
     <use xlink:href="#DejaVuSans-33"/>
     <use xlink:href="#DejaVuSans-2e" x="63.623047"/>
     <use xlink:href="#DejaVuSans-30" x="95.410156"/>
     <use xlink:href="#DejaVuSans-35" x="159.033203"/>
     <use xlink:href="#DejaVuSans-36" x="222.65625"/>
     <use xlink:href="#DejaVuSans-31" x="286.279297"/>
     <use xlink:href="#DejaVuSans-31" x="349.902344"/>
     <use xlink:href="#DejaVuSans-25" x="413.525391"/>
    </g>
   </g>
   <g id="text_5">
    <!-- EDUUSDT -->
    <g transform="translate(273.683226 85.470903) scale(0.1 -0.1)">
     <defs>
      <path id="DejaVuSans-45" d="M 628 4666 
L 3578 4666 
L 3578 4134 
L 1259 4134 
L 1259 2753 
L 3481 2753 
L 3481 2222 
L 1259 2222 
L 1259 531 
L 3634 531 
L 3634 0 
L 628 0 
L 628 4666 
z
" transform="scale(0.015625)"/>
     </defs>
     <use xlink:href="#DejaVuSans-45"/>
     <use xlink:href="#DejaVuSans-44" x="63.183594"/>
     <use xlink:href="#DejaVuSans-55" x="140.185547"/>
     <use xlink:href="#DejaVuSans-55" x="213.378906"/>
     <use xlink:href="#DejaVuSans-53" x="286.572266"/>
     <use xlink:href="#DejaVuSans-44" x="350.048828"/>
     <use xlink:href="#DejaVuSans-54" x="427.050781"/>
    </g>
   </g>
   <g id="text_6">
    <!-- 4.13427% -->
    <g transform="translate(201.904428 111.627481) scale(0.1 -0.1)">
     <defs>
      <path id="DejaVuSans-34" d="M 2419 4116 
L 825 1625 
L 2419 1625 
L 2419 4116 
z
M 2253 4666 
L 3047 4666 
L 3047 1625 
L 3713 1625 
L 3713 1100 
L 3047 1100 
L 3047 0 
L 2419 0 
L 2419 1100 
L 313 1100 
L 313 1709 
L 2253 4666 
z
" transform="scale(0.015625)"/>
      <path id="DejaVuSans-32" d="M 1228 531 
L 3431 531 
L 3431 0 
L 469 0 
L 469 531 
Q 828 903 1448 1529 
Q 2069 2156 2228 2338 
Q 2531 2678 2651 2914 
Q 2772 3150 2772 3378 
Q 2772 3750 2511 3984 
Q 2250 4219 1831 4219 
Q 1534 4219 1204 4116 
Q 875 4013 500 3803 
L 500 4441 
Q 881 4594 1212 4672 
Q 1544 4750 1819 4750 
Q 2544 4750 2975 4387 
Q 3406 4025 3406 3419 
Q 3406 3131 3298 2873 
Q 3191 2616 2906 2266 
Q 2828 2175 2409 1742 
Q 1991 1309 1228 531 
z
" transform="scale(0.015625)"/>
      <path id="DejaVuSans-37" d="M 525 4666 
L 3525 4666 
L 3525 4397 
L 1831 0 
L 1172 0 
L 2766 4134 
L 525 4134 
L 525 4666 
z
" transform="scale(0.015625)"/>
     </defs>
     <use xlink:href="#DejaVuSans-34"/>
     <use xlink:href="#DejaVuSans-2e" x="63.623047"/>
     <use xlink:href="#DejaVuSans-31" x="95.410156"/>
     <use xlink:href="#DejaVuSans-33" x="159.033203"/>
     <use xlink:href="#DejaVuSans-34" x="222.65625"/>
     <use xlink:href="#DejaVuSans-32" x="286.279297"/>
     <use xlink:href="#DejaVuSans-37" x="349.902344"/>
     <use xlink:href="#DejaVuSans-25" x="413.525391"/>
    </g>
   </g>
   <g id="text_7">
    <!-- XRPUSDT -->
    <g transform="translate(253.563426 59.290107) scale(0.1 -0.1)">
     <defs>
      <path id="DejaVuSans-50" d="M 1259 4147 
L 1259 2394 
L 2053 2394 
Q 2494 2394 2734 2622 
Q 2975 2850 2975 3272 
Q 2975 3691 2734 3919 
Q 2494 4147 2053 4147 
L 1259 4147 
z
M 628 4666 
L 2053 4666 
Q 2838 4666 3239 4311 
Q 3641 3956 3641 3272 
Q 3641 2581 3239 2228 
Q 2838 1875 2053 1875 
L 1259 1875 
L 1259 0 
L 628 0 
L 628 4666 
z
" transform="scale(0.015625)"/>
     </defs>
     <use xlink:href="#DejaVuSans-58"/>
     <use xlink:href="#DejaVuSans-52" x="68.505859"/>
     <use xlink:href="#DejaVuSans-50" x="137.988281"/>
     <use xlink:href="#DejaVuSans-55" x="198.291016"/>
     <use xlink:href="#DejaVuSans-53" x="271.484375"/>
     <use xlink:href="#DejaVuSans-44" x="334.960938"/>
     <use xlink:href="#DejaVuSans-54" x="411.962891"/>
    </g>
   </g>
   <g id="text_8">
    <!-- 4.87198% -->
    <g transform="translate(190.929992 97.347047) scale(0.1 -0.1)">
     <defs>
      <path id="DejaVuSans-38" d="M 2034 2216 
Q 1584 2216 1326 1975 
Q 1069 1734 1069 1313 
Q 1069 891 1326 650 
Q 1584 409 2034 409 
Q 2484 409 2743 651 
Q 3003 894 3003 1313 
Q 3003 1734 2745 1975 
Q 2488 2216 2034 2216 
z
M 1403 2484 
Q 997 2584 770 2862 
Q 544 3141 544 3541 
Q 544 4100 942 4425 
Q 1341 4750 2034 4750 
Q 2731 4750 3128 4425 
Q 3525 4100 3525 3541 
Q 3525 3141 3298 2862 
Q 3072 2584 2669 2484 
Q 3125 2378 3379 2068 
Q 3634 1759 3634 1313 
Q 3634 634 3220 271 
Q 2806 -91 2034 -91 
Q 1263 -91 848 271 
Q 434 634 434 1313 
Q 434 1759 690 2068 
Q 947 2378 1403 2484 
z
M 1172 3481 
Q 1172 3119 1398 2916 
Q 1625 2713 2034 2713 
Q 2441 2713 2670 2916 
Q 2900 3119 2900 3481 
Q 2900 3844 2670 4047 
Q 2441 4250 2034 4250 
Q 1625 4250 1398 4047 
Q 1172 3844 1172 3481 
z
" transform="scale(0.015625)"/>
      <path id="DejaVuSans-39" d="M 703 97 
L 703 672 
Q 941 559 1184 500 
Q 1428 441 1663 441 
Q 2288 441 2617 861 
Q 2947 1281 2994 2138 
Q 2813 1869 2534 1725 
Q 2256 1581 1919 1581 
Q 1219 1581 811 2004 
Q 403 2428 403 3163 
Q 403 3881 828 4315 
Q 1253 4750 1959 4750 
Q 2769 4750 3195 4129 
Q 3622 3509 3622 2328 
Q 3622 1225 3098 567 
Q 2575 -91 1691 -91 
Q 1453 -91 1209 -44 
Q 966 3 703 97 
z
M 1959 2075 
Q 2384 2075 2632 2365 
Q 2881 2656 2881 3163 
Q 2881 3666 2632 3958 
Q 2384 4250 1959 4250 
Q 1534 4250 1286 3958 
Q 1038 3666 1038 3163 
Q 1038 2656 1286 2365 
Q 1534 2075 1959 2075 
z
" transform="scale(0.015625)"/>
     </defs>
     <use xlink:href="#DejaVuSans-34"/>
     <use xlink:href="#DejaVuSans-2e" x="63.623047"/>
     <use xlink:href="#DejaVuSans-38" x="95.410156"/>
     <use xlink:href="#DejaVuSans-37" x="159.033203"/>
     <use xlink:href="#DejaVuSans-31" x="222.65625"/>
     <use xlink:href="#DejaVuSans-39" x="286.279297"/>
     <use xlink:href="#DejaVuSans-38" x="349.902344"/>
     <use xlink:href="#DejaVuSans-25" x="413.525391"/>
    </g>
   </g>
   <g id="text_9">
    <!-- PEPEUSDT -->
    <g transform="translate(223.894738 38.198127) scale(0.1 -0.1)">
     <use xlink:href="#DejaVuSans-50"/>
     <use xlink:href="#DejaVuSans-45" x="60.302734"/>
     <use xlink:href="#DejaVuSans-50" x="123.486328"/>
     <use xlink:href="#DejaVuSans-45" x="183.789062"/>
     <use xlink:href="#DejaVuSans-55" x="246.972656"/>
     <use xlink:href="#DejaVuSans-53" x="320.166016"/>
     <use xlink:href="#DejaVuSans-44" x="383.642578"/>
     <use xlink:href="#DejaVuSans-54" x="460.644531"/>
    </g>
   </g>
   <g id="text_10">
    <!-- 5.06427% -->
    <g transform="translate(174.747071 85.842331) scale(0.1 -0.1)">
     <use xlink:href="#DejaVuSans-35"/>
     <use xlink:href="#DejaVuSans-2e" x="63.623047"/>
     <use xlink:href="#DejaVuSans-30" x="95.410156"/>
     <use xlink:href="#DejaVuSans-36" x="159.033203"/>
     <use xlink:href="#DejaVuSans-34" x="222.65625"/>
     <use xlink:href="#DejaVuSans-32" x="286.279297"/>
     <use xlink:href="#DejaVuSans-37" x="349.902344"/>
     <use xlink:href="#DejaVuSans-25" x="413.525391"/>
    </g>
   </g>
   <g id="text_11">
    <!-- BUSDUSDT -->
    <g transform="translate(187.19494 26.954542) scale(0.1 -0.1)">
     <use xlink:href="#DejaVuSans-42"/>
     <use xlink:href="#DejaVuSans-55" x="68.603516"/>
     <use xlink:href="#DejaVuSans-53" x="141.796875"/>
     <use xlink:href="#DejaVuSans-44" x="205.273438"/>
     <use xlink:href="#DejaVuSans-55" x="282.275391"/>
     <use xlink:href="#DejaVuSans-53" x="355.46875"/>
     <use xlink:href="#DejaVuSans-44" x="418.945312"/>
     <use xlink:href="#DejaVuSans-54" x="495.947266"/>
    </g>
   </g>
   <g id="text_12">
    <!-- 5.41767% -->
    <g transform="translate(154.728999 79.709466) scale(0.1 -0.1)">
     <use xlink:href="#DejaVuSans-35"/>
     <use xlink:href="#DejaVuSans-2e" x="63.623047"/>
     <use xlink:href="#DejaVuSans-34" x="95.410156"/>
     <use xlink:href="#DejaVuSans-31" x="159.033203"/>
     <use xlink:href="#DejaVuSans-37" x="222.65625"/>
     <use xlink:href="#DejaVuSans-36" x="286.279297"/>
     <use xlink:href="#DejaVuSans-37" x="349.902344"/>
     <use xlink:href="#DejaVuSans-25" x="413.525391"/>
    </g>
   </g>
   <g id="text_13">
    <!-- USDCUSDT -->
    <g transform="translate(88.226189 29.239771) scale(0.1 -0.1)">
     <defs>
      <path id="DejaVuSans-43" d="M 4122 4306 
L 4122 3641 
Q 3803 3938 3442 4084 
Q 3081 4231 2675 4231 
Q 1875 4231 1450 3742 
Q 1025 3253 1025 2328 
Q 1025 1406 1450 917 
Q 1875 428 2675 428 
Q 3081 428 3442 575 
Q 3803 722 4122 1019 
L 4122 359 
Q 3791 134 3420 21 
Q 3050 -91 2638 -91 
Q 1578 -91 968 557 
Q 359 1206 359 2328 
Q 359 3453 968 4101 
Q 1578 4750 2638 4750 
Q 3056 4750 3426 4639 
Q 3797 4528 4122 4306 
z
" transform="scale(0.015625)"/>
     </defs>
     <use xlink:href="#DejaVuSans-55"/>
     <use xlink:href="#DejaVuSans-53" x="73.193359"/>
     <use xlink:href="#DejaVuSans-44" x="136.669922"/>
     <use xlink:href="#DejaVuSans-43" x="213.671875"/>
     <use xlink:href="#DejaVuSans-55" x="283.496094"/>
     <use xlink:href="#DejaVuSans-53" x="356.689453"/>
     <use xlink:href="#DejaVuSans-44" x="420.166016"/>
     <use xlink:href="#DejaVuSans-54" x="497.167969"/>
    </g>
   </g>
   <g id="text_14">
    <!-- 6.39517% -->
    <g transform="translate(131.196044 80.955954) scale(0.1 -0.1)">
     <use xlink:href="#DejaVuSans-36"/>
     <use xlink:href="#DejaVuSans-2e" x="63.623047"/>
     <use xlink:href="#DejaVuSans-33" x="95.410156"/>
     <use xlink:href="#DejaVuSans-39" x="159.033203"/>
     <use xlink:href="#DejaVuSans-35" x="222.65625"/>
     <use xlink:href="#DejaVuSans-31" x="286.279297"/>
     <use xlink:href="#DejaVuSans-37" x="349.902344"/>
     <use xlink:href="#DejaVuSans-25" x="413.525391"/>
    </g>
   </g>
   <g id="text_15">
    <!-- RNDRUSDT -->
    <g transform="translate(40.749662 52.608173) scale(0.1 -0.1)">
     <use xlink:href="#DejaVuSans-52"/>
     <use xlink:href="#DejaVuSans-4e" x="69.482422"/>
     <use xlink:href="#DejaVuSans-44" x="144.287109"/>
     <use xlink:href="#DejaVuSans-52" x="221.289062"/>
     <use xlink:href="#DejaVuSans-55" x="290.771484"/>
     <use xlink:href="#DejaVuSans-53" x="363.964844"/>
     <use xlink:href="#DejaVuSans-44" x="427.441406"/>
     <use xlink:href="#DejaVuSans-54" x="504.443359"/>
    </g>
   </g>
   <g id="text_16">
    <!-- 7.93351% -->
    <g transform="translate(105.696916 93.702356) scale(0.1 -0.1)">
     <use xlink:href="#DejaVuSans-37"/>
     <use xlink:href="#DejaVuSans-2e" x="63.623047"/>
     <use xlink:href="#DejaVuSans-39" x="95.410156"/>
     <use xlink:href="#DejaVuSans-33" x="159.033203"/>
     <use xlink:href="#DejaVuSans-33" x="222.65625"/>
     <use xlink:href="#DejaVuSans-35" x="286.279297"/>
     <use xlink:href="#DejaVuSans-31" x="349.902344"/>
     <use xlink:href="#DejaVuSans-25" x="413.525391"/>
    </g>
   </g>
   <g id="text_17">
    <!-- ETHUSDT -->
    <g transform="translate(7.2 142.501436) scale(0.1 -0.1)">
     <defs>
      <path id="DejaVuSans-48" d="M 628 4666 
L 1259 4666 
L 1259 2753 
L 3553 2753 
L 3553 4666 
L 4184 4666 
L 4184 0 
L 3553 0 
L 3553 2222 
L 1259 2222 
L 1259 0 
L 628 0 
L 628 4666 
z
" transform="scale(0.015625)"/>
     </defs>
     <use xlink:href="#DejaVuSans-45"/>
     <use xlink:href="#DejaVuSans-54" x="63.183594"/>
     <use xlink:href="#DejaVuSans-48" x="124.267578"/>
     <use xlink:href="#DejaVuSans-55" x="199.462891"/>
     <use xlink:href="#DejaVuSans-53" x="272.65625"/>
     <use xlink:href="#DejaVuSans-44" x="336.132812"/>
     <use xlink:href="#DejaVuSans-54" x="413.134766"/>
    </g>
   </g>
   <g id="text_18">
    <!-- 20.00723% -->
    <g transform="translate(79.235169 142.735045) scale(0.1 -0.1)">
     <use xlink:href="#DejaVuSans-32"/>
     <use xlink:href="#DejaVuSans-30" x="63.623047"/>
     <use xlink:href="#DejaVuSans-2e" x="127.246094"/>
     <use xlink:href="#DejaVuSans-30" x="159.033203"/>
     <use xlink:href="#DejaVuSans-30" x="222.65625"/>
     <use xlink:href="#DejaVuSans-37" x="286.279297"/>
     <use xlink:href="#DejaVuSans-32" x="349.902344"/>
     <use xlink:href="#DejaVuSans-33" x="413.525391"/>
     <use xlink:href="#DejaVuSans-25" x="477.148438"/>
    </g>
   </g>
   <g id="text_19">
    <!-- BTCUSDT -->
    <g transform="translate(207.660768 254.448959) scale(0.1 -0.1)">
     <use xlink:href="#DejaVuSans-42"/>
     <use xlink:href="#DejaVuSans-54" x="68.603516"/>
     <use xlink:href="#DejaVuSans-43" x="123.8125"/>
     <use xlink:href="#DejaVuSans-55" x="193.636719"/>
     <use xlink:href="#DejaVuSans-53" x="266.830078"/>
     <use xlink:href="#DejaVuSans-44" x="330.306641"/>
     <use xlink:href="#DejaVuSans-54" x="407.308594"/>
    </g>
   </g>
   <g id="text_20">
    <!-- 40.06624% -->
    <g transform="translate(162.710928 203.79733) scale(0.1 -0.1)">
     <use xlink:href="#DejaVuSans-34"/>
     <use xlink:href="#DejaVuSans-30" x="63.623047"/>
     <use xlink:href="#DejaVuSans-2e" x="127.246094"/>
     <use xlink:href="#DejaVuSans-30" x="159.033203"/>
     <use xlink:href="#DejaVuSans-36" x="222.65625"/>
     <use xlink:href="#DejaVuSans-36" x="286.279297"/>
     <use xlink:href="#DejaVuSans-32" x="349.902344"/>
     <use xlink:href="#DejaVuSans-34" x="413.525391"/>
     <use xlink:href="#DejaVuSans-25" x="477.148438"/>
    </g>
   </g>
   <g id="legend_1">
    <g id="patch_12">
     <path d="M 351.682827 161.98125 
L 440.235952 161.98125 
Q 442.235952 161.98125 442.235952 159.98125 
L 442.235952 14.2 
Q 442.235952 12.2 440.235952 12.2 
L 351.682827 12.2 
Q 349.682827 12.2 349.682827 14.2 
L 349.682827 159.98125 
Q 349.682827 161.98125 351.682827 161.98125 
z
" style="fill: #ffffff; opacity: 0.8; stroke: #cccccc; stroke-linejoin: miter"/>
    </g>
    <g id="patch_13">
     <path d="M 353.682827 23.798437 
L 373.682827 23.798437 
L 373.682827 16.798437 
L 353.682827 16.798437 
z
" style="fill: #1f77b4"/>
    </g>
    <g id="text_21">
     <!-- BNBUSDT -->
     <g transform="translate(381.682827 23.798437) scale(0.1 -0.1)">
      <use xlink:href="#DejaVuSans-42"/>
      <use xlink:href="#DejaVuSans-4e" x="68.603516"/>
      <use xlink:href="#DejaVuSans-42" x="143.408203"/>
      <use xlink:href="#DejaVuSans-55" x="212.011719"/>
      <use xlink:href="#DejaVuSans-53" x="285.205078"/>
      <use xlink:href="#DejaVuSans-44" x="348.681641"/>
      <use xlink:href="#DejaVuSans-54" x="425.683594"/>
     </g>
    </g>
    <g id="patch_14">
     <path d="M 353.682827 38.476562 
L 373.682827 38.476562 
L 373.682827 31.476562 
L 353.682827 31.476562 
z
" style="fill: #ff7f0e"/>
    </g>
    <g id="text_22">
     <!-- TRXUSDT -->
     <g transform="translate(381.682827 38.476562) scale(0.1 -0.1)">
      <use xlink:href="#DejaVuSans-54"/>
      <use xlink:href="#DejaVuSans-52" x="61.083984"/>
      <use xlink:href="#DejaVuSans-58" x="130.566406"/>
      <use xlink:href="#DejaVuSans-55" x="199.072266"/>
      <use xlink:href="#DejaVuSans-53" x="272.265625"/>
      <use xlink:href="#DejaVuSans-44" x="335.742188"/>
      <use xlink:href="#DejaVuSans-54" x="412.744141"/>
     </g>
    </g>
    <g id="patch_15">
     <path d="M 353.682827 53.154687 
L 373.682827 53.154687 
L 373.682827 46.154687 
L 353.682827 46.154687 
z
" style="fill: #2ca02c"/>
    </g>
    <g id="text_23">
     <!-- EDUUSDT -->
     <g transform="translate(381.682827 53.154687) scale(0.1 -0.1)">
      <use xlink:href="#DejaVuSans-45"/>
      <use xlink:href="#DejaVuSans-44" x="63.183594"/>
      <use xlink:href="#DejaVuSans-55" x="140.185547"/>
      <use xlink:href="#DejaVuSans-55" x="213.378906"/>
      <use xlink:href="#DejaVuSans-53" x="286.572266"/>
      <use xlink:href="#DejaVuSans-44" x="350.048828"/>
      <use xlink:href="#DejaVuSans-54" x="427.050781"/>
     </g>
    </g>
    <g id="patch_16">
     <path d="M 353.682827 67.832812 
L 373.682827 67.832812 
L 373.682827 60.832812 
L 353.682827 60.832812 
z
" style="fill: #d62728"/>
    </g>
    <g id="text_24">
     <!-- XRPUSDT -->
     <g transform="translate(381.682827 67.832812) scale(0.1 -0.1)">
      <use xlink:href="#DejaVuSans-58"/>
      <use xlink:href="#DejaVuSans-52" x="68.505859"/>
      <use xlink:href="#DejaVuSans-50" x="137.988281"/>
      <use xlink:href="#DejaVuSans-55" x="198.291016"/>
      <use xlink:href="#DejaVuSans-53" x="271.484375"/>
      <use xlink:href="#DejaVuSans-44" x="334.960938"/>
      <use xlink:href="#DejaVuSans-54" x="411.962891"/>
     </g>
    </g>
    <g id="patch_17">
     <path d="M 353.682827 82.510937 
L 373.682827 82.510937 
L 373.682827 75.510937 
L 353.682827 75.510937 
z
" style="fill: #9467bd"/>
    </g>
    <g id="text_25">
     <!-- PEPEUSDT -->
     <g transform="translate(381.682827 82.510937) scale(0.1 -0.1)">
      <use xlink:href="#DejaVuSans-50"/>
      <use xlink:href="#DejaVuSans-45" x="60.302734"/>
      <use xlink:href="#DejaVuSans-50" x="123.486328"/>
      <use xlink:href="#DejaVuSans-45" x="183.789062"/>
      <use xlink:href="#DejaVuSans-55" x="246.972656"/>
      <use xlink:href="#DejaVuSans-53" x="320.166016"/>
      <use xlink:href="#DejaVuSans-44" x="383.642578"/>
      <use xlink:href="#DejaVuSans-54" x="460.644531"/>
     </g>
    </g>
    <g id="patch_18">
     <path d="M 353.682827 97.189062 
L 373.682827 97.189062 
L 373.682827 90.189062 
L 353.682827 90.189062 
z
" style="fill: #8c564b"/>
    </g>
    <g id="text_26">
     <!-- BUSDUSDT -->
     <g transform="translate(381.682827 97.189062) scale(0.1 -0.1)">
      <use xlink:href="#DejaVuSans-42"/>
      <use xlink:href="#DejaVuSans-55" x="68.603516"/>
      <use xlink:href="#DejaVuSans-53" x="141.796875"/>
      <use xlink:href="#DejaVuSans-44" x="205.273438"/>
      <use xlink:href="#DejaVuSans-55" x="282.275391"/>
      <use xlink:href="#DejaVuSans-53" x="355.46875"/>
      <use xlink:href="#DejaVuSans-44" x="418.945312"/>
      <use xlink:href="#DejaVuSans-54" x="495.947266"/>
     </g>
    </g>
    <g id="patch_19">
     <path d="M 353.682827 111.867187 
L 373.682827 111.867187 
L 373.682827 104.867187 
L 353.682827 104.867187 
z
" style="fill: #e377c2"/>
    </g>
    <g id="text_27">
     <!-- USDCUSDT -->
     <g transform="translate(381.682827 111.867187) scale(0.1 -0.1)">
      <use xlink:href="#DejaVuSans-55"/>
      <use xlink:href="#DejaVuSans-53" x="73.193359"/>
      <use xlink:href="#DejaVuSans-44" x="136.669922"/>
      <use xlink:href="#DejaVuSans-43" x="213.671875"/>
      <use xlink:href="#DejaVuSans-55" x="283.496094"/>
      <use xlink:href="#DejaVuSans-53" x="356.689453"/>
      <use xlink:href="#DejaVuSans-44" x="420.166016"/>
      <use xlink:href="#DejaVuSans-54" x="497.167969"/>
     </g>
    </g>
    <g id="patch_20">
     <path d="M 353.682827 126.545312 
L 373.682827 126.545312 
L 373.682827 119.545312 
L 353.682827 119.545312 
z
" style="fill: #7f7f7f"/>
    </g>
    <g id="text_28">
     <!-- RNDRUSDT -->
     <g transform="translate(381.682827 126.545312) scale(0.1 -0.1)">
      <use xlink:href="#DejaVuSans-52"/>
      <use xlink:href="#DejaVuSans-4e" x="69.482422"/>
      <use xlink:href="#DejaVuSans-44" x="144.287109"/>
      <use xlink:href="#DejaVuSans-52" x="221.289062"/>
      <use xlink:href="#DejaVuSans-55" x="290.771484"/>
      <use xlink:href="#DejaVuSans-53" x="363.964844"/>
      <use xlink:href="#DejaVuSans-44" x="427.441406"/>
      <use xlink:href="#DejaVuSans-54" x="504.443359"/>
     </g>
    </g>
    <g id="patch_21">
     <path d="M 353.682827 141.223437 
L 373.682827 141.223437 
L 373.682827 134.223437 
L 353.682827 134.223437 
z
" style="fill: #bcbd22"/>
    </g>
    <g id="text_29">
     <!-- ETHUSDT -->
     <g transform="translate(381.682827 141.223437) scale(0.1 -0.1)">
      <use xlink:href="#DejaVuSans-45"/>
      <use xlink:href="#DejaVuSans-54" x="63.183594"/>
      <use xlink:href="#DejaVuSans-48" x="124.267578"/>
      <use xlink:href="#DejaVuSans-55" x="199.462891"/>
      <use xlink:href="#DejaVuSans-53" x="272.65625"/>
      <use xlink:href="#DejaVuSans-44" x="336.132812"/>
      <use xlink:href="#DejaVuSans-54" x="413.134766"/>
     </g>
    </g>
    <g id="patch_22">
     <path d="M 353.682827 155.901562 
L 373.682827 155.901562 
L 373.682827 148.901562 
L 353.682827 148.901562 
z
" style="fill: #17becf"/>
    </g>
    <g id="text_30">
     <!-- BTCUSDT -->
     <g transform="translate(381.682827 155.901562) scale(0.1 -0.1)">
      <use xlink:href="#DejaVuSans-42"/>
      <use xlink:href="#DejaVuSans-54" x="68.603516"/>
      <use xlink:href="#DejaVuSans-43" x="123.8125"/>
      <use xlink:href="#DejaVuSans-55" x="193.636719"/>
      <use xlink:href="#DejaVuSans-53" x="266.830078"/>
      <use xlink:href="#DejaVuSans-44" x="330.306641"/>
      <use xlink:href="#DejaVuSans-54" x="407.308594"/>
     </g>
    </g>
   </g>
  </g>
 </g>
</svg>
